<svg width="47" height="45" viewBox="0 0 47 45" fill="none" xmlns="http://www.w3.org/2000/svg">
<g clip-path="url(#clip0_26_344)">
<path d="M22.5155 1.55329C22.8007 1.79902 22.9784 1.86108 23.286 1.56537C25.7121 -0.766585 28.9324 -0.463714 30.8461 2.27768C31.1154 2.66348 31.4277 2.62912 31.7817 2.63598C34.8573 2.69557 37.3791 3.89515 39.3038 6.30754C40.2045 7.43659 40.6573 8.75375 40.8312 10.1699C40.8707 10.4921 40.9763 10.631 41.2995 10.7295C44.2389 11.6251 45.774 14.188 45.1842 17.1949C45.1311 17.4653 45.1661 17.6772 45.2962 17.9171C46.9332 20.9362 46.5681 24.0321 44.2841 26.5865C44.1147 26.7759 43.948 26.9495 43.898 27.2263C43.4888 29.4936 42.2627 31.2032 40.3185 32.4156C40.2147 32.4804 40.1246 32.5671 40.0102 32.6579C40.286 33.1394 40.5632 33.5899 40.8085 34.0572C41.8191 35.983 41.5977 37.5953 40.0935 39.3331C39.6588 39.8353 39.1568 40.2655 38.5857 40.6005C37.6094 41.1732 36.7396 40.8856 36.2966 39.8489C36.0881 39.3609 35.9196 38.8558 35.734 38.358C35.3688 37.3779 34.6561 36.881 33.622 36.7754C31.186 36.5267 29.279 35.3855 27.957 33.315C27.7434 32.9804 27.4893 32.7871 27.1085 32.725C26.1552 32.5695 25.2465 32.2794 24.4318 31.7506C24.169 31.58 23.9878 31.6203 23.7538 31.802C20.2139 34.5508 15.364 33.546 13.0072 29.779C12.7068 29.2988 12.3764 29.346 11.9367 29.4314C6.45399 30.4969 1.22284 27.0677 0.164388 21.6624C-0.22624 19.6676 0.0843176 17.724 1.04257 15.9124C1.23916 15.5408 1.3084 15.2056 1.24373 14.7696C0.883338 12.3403 1.92709 10.2374 4.07956 8.96894C4.36932 8.79818 4.57311 8.61072 4.65217 8.26025C5.41349 4.88543 8.40705 2.93014 11.837 3.5813C12.2321 3.65631 12.4444 3.59909 12.6754 3.25459C14.8228 0.0524596 19.3371 -0.734517 22.5155 1.55329ZM22.1246 5.15985C21.9449 4.74538 22.0032 4.32696 22.1114 3.91067C22.2017 3.56341 22.1014 3.30734 21.8242 3.07025C19.9586 1.47473 16.5494 1.58247 14.7659 3.30019C13.8316 4.20008 13.4227 5.28578 13.5403 6.58155C13.5845 7.06915 13.3497 7.43939 12.8512 7.49413C12.3679 7.54721 12.0617 7.25596 11.9314 6.78581C11.845 6.4741 11.7877 6.15105 11.8504 5.83946C11.9477 5.35552 11.7364 5.19169 11.2943 5.14532C10.1559 5.02592 9.07946 5.20632 8.12125 5.84318C7.31735 6.37749 6.6959 7.07252 6.41834 8.13176C6.8326 8.13176 7.14795 8.12263 7.46262 8.13341C8.57213 8.17139 9.59399 8.50423 10.5303 9.09129C11.0278 9.40325 11.1693 9.87039 10.9266 10.2774C10.6807 10.6898 10.1971 10.8021 9.70843 10.5063C8.73986 9.91996 7.70233 9.73907 6.58636 9.8504C4.9746 10.0112 3.47462 11.1663 3.01145 12.7168C2.51964 14.3631 2.95426 15.7772 4.22905 16.9247C4.46441 17.1366 4.75662 17.2848 4.99497 17.4939C5.33083 17.7886 5.48243 18.16 5.20488 18.5674C4.93124 18.9691 4.54333 19.0956 4.09331 18.8581C3.60009 18.5978 3.18534 18.2341 2.7934 17.8391C2.64033 17.6848 2.53703 17.4309 2.19443 17.4715C1.66872 18.7042 1.5641 19.9892 1.78663 21.3187C2.50836 25.6307 6.84473 28.6436 11.5235 27.8013C11.8396 27.7444 11.9402 27.6072 11.8885 27.2755C11.7228 26.2131 11.7352 26.2119 10.6831 25.9329C10.5188 25.8894 10.3547 25.8429 10.1947 25.7861C8.67821 25.2484 7.42977 23.5377 7.37778 21.9303C7.35805 21.3202 7.66637 20.9024 8.17279 20.9009C8.74757 20.8992 9.00164 21.2536 9.06242 21.7851C9.07449 21.8906 9.07252 21.9979 9.08737 22.1029C9.2361 23.1548 10.1003 24.0938 11.1094 24.3346C11.4719 24.4211 11.6516 24.3714 11.702 23.9457C11.8019 23.1006 11.9903 22.2717 12.3652 21.4958C12.6693 20.8665 13.078 20.635 13.5423 20.8476C14.0152 21.0641 14.1348 21.5265 13.8746 22.1525C13.2878 23.5641 13.1377 25.0156 13.4232 26.5215C13.9471 29.285 16.4413 32.1461 20.1215 31.6166C21.1052 31.4751 21.9589 31.0583 22.7588 30.4645C22.6645 30.3104 22.6253 30.2361 22.5767 30.1685C22.0908 29.4922 22.0692 29.0712 22.5049 28.7254C22.9095 28.4043 23.3328 28.5268 23.8577 29.1169C25.9283 31.4449 28.7699 31.8185 31.4279 30.1121C32.026 29.7282 32.4866 29.7393 32.7855 30.1449C33.0974 30.5683 32.9584 31.0706 32.3727 31.4913C31.7126 31.9656 30.9947 32.3309 30.2021 32.5392C30.009 32.5899 29.7624 32.5667 29.6722 32.8722C29.7929 33.0193 29.9147 33.193 30.0614 33.3424C31.0158 34.3151 32.1546 34.9528 33.5209 35.0797C35.5783 35.271 36.9024 36.317 37.4836 38.3057C37.5586 38.5622 37.598 38.8495 37.8352 39.0309C39.4832 38.2076 40.1523 36.554 39.4384 35.0042C39.2266 34.5443 38.9159 34.1302 38.6547 33.6926C38.4874 33.4122 38.2767 33.3544 37.9568 33.4541C37.4309 33.6179 36.8912 33.7422 36.3514 33.855C35.8386 33.9622 35.4684 33.7553 35.3173 33.2477C35.182 32.7932 35.4727 32.4002 36.0389 32.2305C36.2013 32.1819 36.3703 32.1555 36.5355 32.1153C37.934 31.7754 39.2489 31.2642 40.3675 30.3188C40.992 29.791 41.4479 29.1554 41.8092 28.4307C41.727 28.3905 41.7067 28.3713 41.6906 28.3743C41.6289 28.3861 41.5674 28.4019 41.5077 28.4218C39.3314 29.146 37.2346 29.0222 35.2565 27.8016C34.9236 27.5961 34.6877 27.6827 34.3851 27.8458C31.6949 29.296 28.6163 27.8039 28.0868 24.8045C27.9395 23.9701 28.1631 23.4579 28.721 23.3514C29.2537 23.2498 29.609 23.6648 29.7396 24.5413C29.9107 25.6894 30.7054 26.5146 31.8427 26.7252C32.8588 26.9134 34.0182 26.3533 34.5404 25.422C35.1849 24.2726 34.968 23.1482 33.8983 22.0935C33.4447 21.6463 33.3841 21.1863 33.7602 20.8125C34.1792 20.396 34.5869 20.5166 34.9978 20.8635C36.4191 22.0636 36.9695 23.9712 36.2507 25.64C35.971 26.2894 36.2098 26.4906 36.7235 26.7238C40.1045 28.2589 44.1496 26.001 44.5834 22.3012C44.6965 21.3363 44.6287 20.37 44.1415 19.4267C43.5679 19.8743 43.1246 20.3801 42.5053 20.6312C42.112 20.7906 41.7481 20.7527 41.4907 20.3721C41.2596 20.0302 41.2771 19.6812 41.5541 19.3783C41.6944 19.225 41.8841 19.1144 42.0591 18.9957C43.9496 17.7127 44.2343 15.0151 42.6508 13.3711C41.4041 12.0767 39.5762 11.8609 37.9107 12.8113C37.3045 13.1572 36.9069 13.1194 36.6266 12.6894C36.3339 12.2403 36.4837 11.8046 37.0596 11.4181C37.5601 11.0822 38.1059 10.8416 38.6929 10.7229C39.0723 10.6461 39.1889 10.4458 39.1337 10.0947C39.0975 9.86462 39.0802 9.62958 39.0213 9.40546C38.3506 6.85074 35.7412 4.69678 32.9327 4.37201C31.6469 4.22333 31.6469 4.22333 31.5353 5.4775C31.5335 5.49868 31.5323 5.51994 31.5299 5.54105C31.4515 6.23066 31.0626 6.61545 30.532 6.52843C30.0451 6.44854 29.8045 5.99733 29.8979 5.33913C30.1071 3.8647 29.3339 2.47308 28.0002 1.92334C25.9589 1.08196 23.9298 2.36759 23.6459 4.70228C23.5948 5.12283 23.4717 5.45031 23.0544 5.59015C22.6808 5.71534 22.392 5.5636 22.1246 5.15985Z" fill="black"/>
<path d="M7.50573 35.3145C8.14304 35.3141 8.71656 35.3115 9.29007 35.3138C10.4246 35.3182 11.2186 35.8223 11.6008 36.7769C12.0203 37.8248 11.8011 38.8521 10.9915 39.6317C10.9001 39.7196 10.8079 39.8068 10.7156 39.895C10.7658 40.1035 10.9622 40.1215 11.0976 40.205C11.9828 40.7514 12.2254 41.5925 12.1849 42.5608C12.1441 43.5373 11.6261 44.1845 10.7501 44.5592C10.1795 44.8032 9.57935 44.9425 8.95592 44.9451C7.55403 44.9508 6.15187 44.9338 4.7503 44.9565C4.24231 44.9647 4.025 44.8095 4.0288 44.268C4.04802 41.528 4.04802 38.7878 4.03216 36.0478C4.02903 35.5075 4.19599 35.2805 4.76598 35.3049C5.65648 35.3429 6.54981 35.3147 7.50573 35.3145ZM8.07274 42.6142C8.28506 42.6136 8.49738 42.6123 8.7097 42.6127C9.18374 42.6136 9.41088 42.3644 9.41842 41.9035C9.42637 41.417 9.19704 41.1418 8.69566 41.1335C8.27109 41.1265 7.84401 41.1563 7.42229 41.1202C6.91063 41.0764 6.75432 41.2856 6.76752 41.7799C6.78921 42.592 6.77886 42.6082 7.56907 42.6129C7.69647 42.6137 7.82388 42.6135 8.07274 42.6142ZM8.05762 37.6593C7.76216 37.6607 7.4667 37.6625 7.17124 37.6631C6.81586 37.6639 6.75601 37.9018 6.77941 38.1782C6.80211 38.4463 6.64438 38.8462 7.09599 38.8781C7.61935 38.9151 8.15156 38.9032 8.6738 38.8511C8.98177 38.8204 9.12669 38.5547 9.10815 38.2445C9.09187 37.972 8.97282 37.7493 8.67816 37.693C8.51396 37.6617 8.34239 37.669 8.05762 37.6593Z" fill="black"/>
<path d="M20.4945 35.3352C21.3431 35.3236 22.1382 35.3236 23.0127 35.3236C22.8356 35.8822 22.4851 36.1753 22.222 36.5167C21.5092 37.4415 20.7864 38.3597 20.0339 39.2522C19.7574 39.5802 19.7777 39.8145 20.0138 40.1424C20.9817 41.4868 21.929 42.846 22.8811 44.2017C23.0108 44.3864 23.1981 44.5468 23.192 44.9086C22.3502 44.9804 21.5155 44.9764 20.6822 44.9102C20.4581 44.8924 20.358 44.6515 20.2412 44.4768C19.6629 43.6116 19.0917 42.7417 18.5112 41.8781C18.3844 41.6895 18.303 41.4564 18.0396 41.3394C17.5973 41.6893 17.285 42.0886 17.3287 42.7159C17.367 43.2656 17.3333 43.82 17.3408 44.3721C17.3461 44.7605 17.1934 44.9331 16.7778 44.9565C14.6107 45.079 14.6105 45.0884 14.6096 42.9256C14.6087 40.6316 14.6229 38.3373 14.5992 36.0435C14.5936 35.4964 14.754 35.2574 15.3227 35.3058C15.7444 35.3417 16.1736 35.3369 16.5961 35.3053C17.1422 35.2643 17.3721 35.4689 17.348 36.0312C17.3162 36.7733 17.3328 37.5178 17.3411 38.2612C17.3433 38.4623 17.2813 38.6829 17.465 38.8966C18.522 37.7536 19.3351 36.4254 20.4945 35.3352Z" fill="black"/>
<path d="M23.5407 22.2528C23.6791 21.6899 23.4616 21.5013 22.9544 21.4013C21.2737 21.0701 19.8348 20.311 18.8341 18.8605C18.6508 18.5947 18.4787 18.3214 18.5646 17.9766C18.6419 17.666 18.8229 17.4389 19.148 17.3677C19.5192 17.2864 19.8099 17.4356 20.0491 17.7128C22.1404 20.1356 25.4512 20.6339 28.1657 18.9068C29.226 18.2323 29.8901 17.2819 29.925 15.9765C29.9394 15.4401 30.2084 15.1197 30.7344 15.1056C31.2915 15.0905 31.5115 15.4697 31.5366 15.9759C31.6106 17.4692 30.9553 18.6522 29.9003 19.6296C28.7778 20.6696 27.4251 21.2633 25.9145 21.4703C25.4835 21.5294 25.3208 21.6822 25.2554 22.1336C24.8218 25.1267 21.5581 26.7674 18.9678 25.315C18.7477 25.1915 18.5328 25.043 18.3518 24.8685C18.0129 24.5418 17.9672 24.1535 18.2787 23.7882C18.5725 23.4436 18.9525 23.327 19.3538 23.6089C19.9699 24.0417 20.6409 24.2806 21.3896 24.1569C22.4696 23.9785 23.188 23.349 23.5407 22.2528Z" fill="black"/>
<path d="M18.3073 10.2554C18.6085 10.1944 18.8575 10.1418 19.1087 10.1039C19.7559 10.0064 20.1869 10.2627 20.2713 10.7875C20.3497 11.2752 19.9772 11.6877 19.3201 11.7403C18.6079 11.7974 17.9302 11.9605 17.3191 12.3139C16.2234 12.9474 15.3648 13.7647 15.4594 15.1755C15.4775 15.4455 15.5642 15.7141 15.6429 15.9762C15.793 16.4765 15.6797 16.8892 15.1825 17.077C14.678 17.2675 14.3303 16.993 14.1028 16.5461C13.4476 15.2592 13.7498 13.4743 14.8386 12.2187C15.7488 11.1691 16.903 10.5447 18.3073 10.2554Z" fill="black"/>
</g>
<defs>
<clipPath id="clip0_26_344">
<rect width="46.3058" height="45" fill="white"/>
</clipPath>
</defs>
</svg>
